Coordinates
version=1
nRows=18
nColumns=22
inDegrees=yes

Units are S.I. units (second, meters, Newtons, ...)
If the header above contains a line with 'inDegrees', this indicates whether rotational values are in degrees (yes) or radians (no).

endheader
time	pelvis_tilt	pelvis_list	pelvis_rotation	pelvis_tx	pelvis_ty	pelvis_tz	hip_flexion_r	hip_adduction_r	hip_rotation_r	knee_angle_r	ankle_angle_r	subtalar_angle_r	hip_flexion_l	hip_adduction_l	hip_rotation_l	knee_angle_l	ankle_angle_l	subtalar_angle_l	lumbar_extension	lumbar_bending	lumbar_rotation
      1.45000000	    -11.56406374	     -1.93717085	      5.12221313	     -1.02727737	      0.87752988	     -0.59249325	     12.16665595	     -5.78912672	      3.94726721	    -10.05421706	     15.10488807	      6.35978933	     10.82327230	     -2.30859381	     -5.68481774	    -12.22671660	     16.34061529	      4.38529693	      5.74827466	     -1.66385251	     14.98495323
      1.46000000	    -11.43145731	     -1.72363895	      5.29763757	     -1.02602643	      0.87721890	     -0.59500484	     12.51704154	     -6.15326851	      4.03274701	    -11.26562116	     15.63598764	      6.43127234	     10.60046205	     -1.90020123	     -5.45308781	    -12.29693181	     16.55198311	      4.28420824	      5.62961851	     -1.88721111	     15.14611485
      1.47000000	    -11.31123530	     -1.47851939	      5.45912440	     -1.02478273	      0.87683931	     -0.59756843	     12.97068105	     -6.54650255	      4.18299278	    -12.64141086	     16.13604412	      6.60218696	     10.37357942	     -1.45130909	     -5.20814058	    -12.34893162	     16.76967265	      4.04916512	      5.51726810	     -2.14432017	     15.32548267
      1.48000000	    -11.11210902	     -1.20630774	      5.63988015	     -1.02349713	      0.87652364	     -0.60022738	     13.39950768	     -6.96120750	      4.34717948	    -14.14305475	     16.61638109	      6.64461974	     10.05639721	     -0.97667469	     -4.97195574	    -12.40385500	     16.99373708	      3.95513759	      5.30019605	     -2.42060665	     15.45762399
      1.49000000	    -10.89537071	     -0.92608481	      5.81697426	     -1.02222755	      0.87618926	     -0.60291885	     13.89645780	     -7.37334016	      4.56531098	    -15.80406299	     17.04918412	      6.70682608	      9.71338740	     -0.49468340	     -4.73064627	    -12.45459782	     17.22756567	      3.81834410	      5.04929812	     -2.70101614	     15.58114663
      1.50000000	    -10.64732234	     -0.64210122	      5.99881055	     -1.02095428	      0.87587159	     -0.60564079	     14.43956882	     -7.77816233	      4.81485241	    -17.61434267	     17.40040373	      6.77014323	      9.32552325	     -0.01204470	     -4.48611639	    -12.49287524	     17.46668379	      3.68106668	      4.74907245	     -2.98120860	     15.67253658
      1.51000000	    -10.38285240	     -0.35998977	      6.18191863	     -1.01968907	      0.87556461	     -0.60836605	     15.05496954	     -8.16692656	      5.09901770	    -19.58705610	     17.62831274	      6.85893818	      8.89486104	      0.46458920	     -4.24195286	    -12.48772788	     17.70207910	      3.53380343	      4.41522324	     -3.25696946	     15.72597478
      1.52000000	    -10.10444120	     -0.09028187	      6.36540918	     -1.01842611	      0.87528105	     -0.61107873	     15.74990952	     -8.52569828	      5.40468926	    -21.72637874	     17.70902295	      7.00145665	      8.41951677	      0.92273285	     -4.00228769	    -12.42857938	     17.93913668	      3.38275036	      4.05227532	     -3.51782132	     15.73246047
      1.53000000	     -9.78294688	      0.16152951	      6.56381068	     -1.01719329	      0.87507355	     -0.61378608	     16.49025882	     -8.84744089	      5.71263323	    -24.02293350	     17.64475359	      7.12711652	      7.88809991	      1.35170686	     -3.74648148	    -12.34898974	     18.16209894	      3.32750071	      3.61867499	     -3.75519313	     15.71040624
      1.54000000	     -9.46310185	      0.39499733	      6.75416656	     -1.01594879	      0.87489373	     -0.61643091	     17.34070724	     -9.12257972	      6.05212022	    -26.49842029	     17.37561908	      7.32468483	      7.31413510	      1.75250343	     -3.50615532	    -12.18580341	     18.36370731	      3.28968825	      3.17655341	     -3.97732444	     15.64930347
      1.55000000	     -9.16284669	      0.59651301	      6.93697798	     -1.01471464	      0.87472298	     -0.61902163	     18.32048983	     -9.33674044	      6.43847617	    -29.13596355	     16.86675787	      7.74817032	      6.72929835	      2.11229557	     -3.28786748	    -11.95815327	     18.56368030	      3.23548673	      2.74575496	     -4.16543793	     15.55007102
      1.56000000	     -8.83090033	      0.77677312	      7.12072039	     -1.01341743	      0.87464150	     -0.62155176	     19.35837656	     -9.49211844	      6.83420045	    -31.91598097	     16.16619003	      8.04462891	      6.06401317	      2.43405772	     -3.09591676	    -11.64524901	     18.71987901	      3.29357611	      2.27091302	     -4.32897320	     15.40941317
      1.57000000	     -8.48149393	      0.93173476	      7.30614092	     -1.01209599	      0.87464419	     -0.62401160	     20.46174270	     -9.57852746	      7.26226963	    -34.80810567	     15.21405549	      8.26588526	      5.35151017	      2.71579407	     -2.90251563	    -11.27632504	     18.82623593	      3.38939097	      1.76336373	     -4.46854949	     15.24931909
      1.58000000	     -8.15533839	      1.04829820	      7.48338662	     -1.01069479	      0.87465287	     -0.62640323	     21.66207736	     -9.58729211	      7.71316565	    -37.77741908	     14.03823926	      8.54864326	      4.62701357	      2.94745540	     -2.75938769	    -10.83569729	     18.91807981	      3.51059416	      1.28434589	     -4.56679157	     15.05456685
      1.59000000	     -7.83386196	      1.11835339	      7.67579649	     -1.00922534	      0.87469914	     -0.62874828	     22.90847053	     -9.51366933	      8.15930573	    -40.76756026	     12.65700929	      8.87346291	      3.90216145	      3.11852260	     -2.63860541	    -10.37813082	     19.01647572	      3.68166717	      0.80756847	     -4.61389296	     14.79959056
      1.60000000	     -7.48648454	      1.15190076	      7.87778277	     -1.00757383	      0.87484665	     -0.63102913	     24.13563793	     -9.36552444	      8.56758199	    -43.72004044	     11.14030216	      8.88744663	      3.09786096	      3.23501048	     -2.50356265	     -9.83044748	     19.03523990	      3.83004511	      0.31479990	     -4.62261021	     14.51602731
      1.61000000	     -7.14291520	      1.13942078	      8.10790774	     -1.00580230	      0.87503323	     -0.63330599	     25.35946799	     -9.15414425	      8.91421573	    -46.59391799	      9.55568158	      8.76466748	      2.29486130	      3.29303623	     -2.37767449	     -9.27532267	     19.02554798	      3.98456894	     -0.16827618	     -4.57506633	     14.17208025
      1.62000000	     -6.80277009	      1.11180015	      8.36441337	     -1.00389786	      0.87523236	     -0.63555217	     26.57224677	     -8.91396378	      9.19293093	    -49.37720268	      8.04726939	      8.31838524	      1.49614469	      3.32430468	     -2.23193782	     -8.73248331	     19.02065025	      4.18193722	     -0.64495547	     -4.51367432	     13.79803878
